<svg width="25" height="24" viewBox="0 0 25 24" fill="none" xmlns="http://www.w3.org/2000/svg">
<path d="M4.05769 8.11535C6.29869 8.11535 8.11535 6.29866 8.11535 4.05766C8.11535 1.81667 6.29869 0 4.05769 0C1.8167 0 0 1.81667 0 4.05766C0 6.29866 1.8167 8.11535 4.05769 8.11535Z" fill="currentColor"/>
<path d="M13.01 8.02824C14.8493 7.64296 16.2309 6.01104 16.2309 4.05766C16.2309 1.81594 14.4149 0 12.1732 0C9.93144 0 8.11548 1.81594 8.11548 4.05766C8.11548 6.01227 9.49708 7.64296 11.3363 8.02824C9.49708 8.41352 8.11548 10.0454 8.11548 11.9988C8.11548 13.9522 9.49708 15.5841 11.3363 15.9706C9.49708 16.3559 8.11548 17.9878 8.11548 19.9412C8.11548 22.1829 9.93267 23.9988 12.1732 23.9988C14.4137 23.9988 16.2309 22.1829 16.2309 19.9412C16.2309 17.9866 14.8493 16.3559 13.01 15.9706C14.8493 15.5853 16.2309 13.9534 16.2309 11.9988C16.2309 10.0442 14.8493 8.41352 13.01 8.02824Z" fill="currentColor"/>
<path d="M20.2884 7.94238C18.0479 7.94238 16.2307 9.75955 16.2307 12C16.2307 14.2405 18.0479 16.0577 20.2884 16.0577C22.5289 16.0577 24.3461 14.2405 24.3461 12C24.3461 9.75955 22.5301 7.94238 20.2884 7.94238Z" fill="currentColor"/>
<path d="M4.05769 24.0001C6.29869 24.0001 8.11535 22.1834 8.11535 19.9424C8.11535 17.7014 6.29869 15.8848 4.05769 15.8848C1.8167 15.8848 0 17.7014 0 19.9424C0 22.1834 1.8167 24.0001 4.05769 24.0001Z" fill="currentColor"/>
</svg>