<svg width="25" height="24" viewBox="0 0 298 214" fill="none" xmlns="http://www.w3.org/2000/svg">
<path d="M14 4.00003C11.8666 6.00003 10.6666 8.6667 10.6666 11.4667C10.6666 15.2 13.0666 18.2667 28.9333 34.1334L47.0666 52.5334L39.3333 60.9334C23.2 78.2667 10.9333 101.067 4.39998 125.733C1.19998 137.733 0.933315 140.8 0.799982 169.6C0.666648 198.8 0.799982 200.667 3.46665 204.133C4.93331 206.133 7.86665 209.067 9.86665 210.533C13.4666 213.333 14.2666 213.333 149.333 213.333C284.4 213.333 285.2 213.333 288.8 210.533C290.8 209.067 293.733 206.133 295.2 204.133C297.867 200.667 298 198.8 297.867 168.933C297.733 139.333 297.6 136.533 294.267 124.4C287.733 99.8667 276 78.1334 259.467 60L252.267 52L270.133 33.8667C285.6 18.2667 288 15.2 288 11.4667C288 5.73336 282.933 0.666696 277.2 0.666696C273.467 0.666696 270.4 3.0667 253.867 19.4667L234.933 38.2667L229.733 34.9334C182.133 4.93336 122.4 3.73336 74.1333 32.1334L63.7333 38.2667L44.8 19.4667C28.2666 3.0667 25.2 0.666696 21.4666 0.666696C18.6666 0.666696 16 1.8667 14 4.00003ZM178.533 36C206.667 42.8 234.133 60.8 251.333 83.7334C257.333 91.6 266 107.067 265.067 108.133C264.8 108.4 255.6 108 244.667 107.333C221.067 105.733 189.733 107.467 170.4 111.467C154.267 114.667 144.4 114.667 128.267 111.333C109.733 107.6 77.3333 105.867 53.7333 107.333C42.9333 108.133 33.8666 108.4 33.6 108C32.4 106.933 42.9333 89.8667 50.6666 80.2667C70.2666 55.8667 99.4666 38.9334 130.267 34C140.8 32.4 168.133 33.4667 178.533 36ZM274 131.333C275.467 137.2 276.4 148.667 276.933 166.267L277.733 192.667H149.333H20.9333L21.7333 166.933C22.4 144.133 24.4 128 27.3333 123.2C28.1333 122 35.2 128.267 36.9333 132C37.7333 133.467 39.6 140.4 41.3333 147.467C47.7333 174.933 54.1333 178.933 90 178.267C118.4 177.867 126.533 171.733 136.667 143.333C138.533 137.867 140.933 132.933 141.733 132.4C144.4 130.667 155.733 131.2 156.933 132.933C157.467 133.867 160.267 140.667 163.067 148C171.6 170.533 178.267 176 200.267 178C214.533 179.467 235.6 177.6 242.4 174.4C248.533 171.467 252.533 163.733 256.8 146.667C259.867 134.4 261.2 131.333 264.933 127.467C267.333 125.067 269.333 122.4 269.333 121.6C269.333 117.867 272.133 123.467 274 131.333Z" fill="currentColor"/>
</svg>