<svg width="74" height="89" viewBox="0 0 74 89" fill="none" xmlns="http://www.w3.org/2000/svg">
<path d="M1.6096 3.27691C1.19981 3.33733 0.818642 3.05411 0.758224 2.64433C0.697807 2.23454 0.981026 1.85337 1.39082 1.79296L1.6096 3.27691ZM54.7434 50.4282L54.8612 51.1688L54.7434 50.4282ZM68.2166 88.6172C67.895 88.8783 67.4227 88.8292 67.1616 88.5077L62.907 83.2674C62.6459 82.9458 62.6949 82.4735 63.0165 82.2124C63.338 81.9513 63.8104 82.0003 64.0715 82.3219L67.8534 86.9799L72.5114 83.198C72.833 82.9369 73.3053 82.986 73.5664 83.3075C73.8275 83.6291 73.7784 84.1014 73.4569 84.3625L68.2166 88.6172ZM1.39082 1.79296C40.5246 -3.97669 58.3645 7.34822 64.1578 20.9045C67.0327 27.632 66.88 34.8074 64.9617 40.477C63.0601 46.097 59.3303 50.4579 54.8612 51.1688L54.6255 49.6875C58.2848 49.1053 61.7139 45.3955 63.5408 39.9962C65.3509 34.6465 65.4964 27.8541 62.7784 21.494C57.3859 8.87529 40.4758 -2.45327 1.6096 3.27691L1.39082 1.79296ZM54.8612 51.1688C49.2145 52.0672 45.1876 50.9396 42.6178 48.5661C40.0591 46.2028 39.09 42.7369 39.2716 39.255C39.4533 35.7722 40.786 32.1824 42.9535 29.4505C45.1239 26.7151 48.1817 24.7849 51.8041 24.7849V26.2849C48.7556 26.2849 46.0954 27.9039 44.1286 30.3828C42.159 32.8653 40.9354 36.155 40.7696 39.3331C40.6038 42.5119 41.4961 45.4881 43.6356 47.4642C45.7641 49.4301 49.2722 50.5391 54.6255 49.6875L54.8612 51.1688ZM51.8041 24.7849C55.5358 24.7849 58.7512 26.2215 61.3726 29.0225C63.9746 31.8027 65.9707 35.9022 67.3681 41.2194C70.1618 51.8503 70.621 67.5821 68.4898 88.1124L66.9979 87.9575C69.1227 67.488 68.6423 51.9698 65.9173 41.6006C64.5553 36.4178 62.6473 32.5797 60.2774 30.0474C57.9269 27.5359 55.1026 26.2849 51.8041 26.2849V24.7849Z" fill="#7B7B7B"/>
</svg> 