<svg width="40" height="40" viewBox="0 0 40 40" fill="none" xmlns="http://www.w3.org/2000/svg">
<path d="M38.8866 29.488C37.4153 27.2868 35.0338 26.2725 32.7188 26.4409C30.967 26.5677 29.2297 26.0438 27.987 24.8008L27.2472 24.0609C25.007 21.8202 25.007 18.1889 27.2472 15.9482L27.987 15.2083C29.2297 13.9653 30.9649 13.4414 32.7168 13.5682C35.0338 13.7366 37.4195 12.7202 38.8907 10.5128C40.3558 8.31362 40.3724 5.35167 38.924 3.14215C36.4677 -0.605514 31.3868 -0.985889 28.4006 2.0031C26.9127 3.48927 26.2643 5.49507 26.4492 7.43854C26.6092 9.13257 26.0045 10.81 24.8013 12.0135L24.0574 12.7576C21.8172 14.9983 18.1868 14.9983 15.9466 12.7576L15.2068 12.0176C13.9641 10.7747 13.4404 9.03904 13.5672 7.28473C13.7334 4.9692 12.7214 2.58717 10.5207 1.11554C8.32417 -0.354007 5.36289 -0.374785 3.14973 1.0719C-0.605371 3.52461 -0.987731 8.61294 2.00264 11.604C3.49055 13.0923 5.49589 13.7408 7.43682 13.5558C9.13047 13.3958 10.8075 14.0006 12.0107 15.2041L12.7547 15.9503C14.9948 18.191 14.9948 21.8222 12.7547 24.0629L12.0149 24.8029C10.7722 26.0459 9.03695 26.5697 7.28305 26.4429C4.96806 26.2746 2.58865 27.2889 1.11529 29.4901C-0.353918 31.6872 -0.374704 34.6491 1.07164 36.8628C3.52379 40.6188 8.61095 41.0033 11.6013 38.0102C13.0892 36.5219 13.7376 34.5182 13.5526 32.5747C13.3926 30.8807 13.9973 29.2033 15.2006 27.9998L15.9445 27.2557C18.1847 25.015 21.8151 25.015 24.0553 27.2557L24.7992 27.9998C26.0024 29.2033 26.6072 30.8807 26.4472 32.5747C26.2622 34.5182 26.9126 36.5219 28.3985 38.0102C31.3888 41.0012 36.476 40.6188 38.9282 36.8628C40.3724 34.6491 40.3537 31.6872 38.8845 29.4901L38.8866 29.488Z" fill="#3071FF"/>
</svg> 