<svg width="24" height="24" viewBox="0 0 24 24" fill="none" xmlns="http://www.w3.org/2000/svg">
<path d="M10.2498 8.72453C12.1266 4.25095 18.5757 3.06837 21.9204 6.61925C25.2966 9.76085 24.4178 15.9304 20.3271 18.0105C20.7117 15.4938 19.8623 12.894 18.1605 11.117C16.2121 8.99807 13.0581 8.04696 10.2498 8.72347V8.72453ZM19.3386 16.7942C19.3407 14.0366 17.7748 11.5705 15.3617 10.3542C16.4239 15.8599 11.1033 21.0637 5.58051 19.8422C6.74915 22.3199 9.20446 23.9644 12.0454 23.998C16.0108 24.0938 19.3923 20.7039 19.3376 16.7942H19.3386ZM10.5607 15.3076C6.01678 14.5216 2.88602 9.70824 4.06098 5.21362C-0.337477 7.12004 -1.41444 13.5821 2.07671 16.8089C5.22012 20.1389 11.2288 19.3456 13.409 15.3539C12.4838 15.5022 11.4764 15.4833 10.5617 15.3076H10.5607ZM4.90505 7.17266C4.90505 9.86817 6.39614 12.2838 8.72288 13.5306C7.3045 7.92702 12.6819 2.33925 18.3776 3.57968C14.7399 -2.75929 4.88925 -0.132148 4.90505 7.17371V7.17266Z" fill="currentColor"/>
</svg>