<?xml version="1.0" encoding="UTF-8"?>
<svg width="58" height="24" viewBox="0 0 58 24" fill="none" xmlns="http://www.w3.org/2000/svg">
<path d="M42.2313 23.994C41.9313 23.994 41.7812 23.844 41.7812 23.544V20.16C41.7812 20.004 41.7873 19.878 41.7993 19.782C41.8233 19.686 41.8953 19.608 42.0153 19.548L51.7201 17.388V15.184L42.0872 12.304C41.8832 12.184 41.7812 12.004 41.7812 11.764V4.158C41.7812 3.966 41.7933 3.828 41.8173 3.744C41.8413 3.648 41.9312 3.546 42.0872 3.438L46.8213 0.234C46.9413 0.162 47.0493 0.108 47.1453 0.0719995C47.2533 0.0240002 47.3853 0 47.5413 0H57.3901C57.6901 0 57.8401 0.15 57.8401 0.45V3.51C57.8401 3.774 57.7501 3.954 57.5701 4.05L47.8653 5.994V9.324L57.5701 12.024C57.7501 12.108 57.8401 12.3 57.8401 12.6V20.43C57.8401 20.526 57.8221 20.628 57.7861 20.736C57.7621 20.844 57.7021 20.922 57.6061 20.97L46.6953 23.922C46.5993 23.97 46.5032 23.994 46.4072 23.994H42.2313Z" fill="currentColor"/>
<path d="M34.8377 23.994C34.5617 23.994 34.3217 23.916 34.1177 23.76L31.1837 21.078L28.2137 17.208C28.0817 17.04 27.9977 16.938 27.9617 16.902C27.9257 16.854 27.9077 16.746 27.9077 16.578V7.398C27.9077 7.23 27.9257 7.122 27.9617 7.074C28.0097 7.026 28.0937 6.924 28.2137 6.768L30.9677 3.204L34.1177 0.234C34.2497 0.125999 34.3517 0.059999 34.4237 0.0359993C34.5077 0.0119996 34.6457 0 34.8377 0H39.2837C39.5837 0 39.7337 0.15 39.7337 0.45V3.33C39.7337 3.426 39.7217 3.528 39.6977 3.636C39.6857 3.732 39.6257 3.816 39.5177 3.888L36.1337 6.21L33.9197 9.054V14.94L36.1697 17.784L39.5177 20.088C39.6137 20.148 39.6737 20.22 39.6977 20.304C39.7217 20.388 39.7337 20.478 39.7337 20.574V23.544C39.7337 23.844 39.5837 23.994 39.2837 23.994H34.8377Z" fill="#3071FF"/>
<path d="M0.45 23.994C0.15 23.994 0 23.844 0 23.544V4.014C0 3.738 0.102 3.498 0.306 3.294L3.294 0.288001C3.498 0.0960007 3.738 0 4.014 0H8.136C8.412 0 8.652 0.0960007 8.856 0.288001L11.88 3.33H12.726L15.75 0.288001C15.954 0.0960007 16.194 0 16.47 0H20.574C20.862 0 21.102 0.0960007 21.294 0.288001L24.3 3.294C24.504 3.498 24.606 3.738 24.606 4.014V23.544C24.606 23.844 24.456 23.994 24.156 23.994H19.044C18.744 23.994 18.594 23.844 18.594 23.544V4.788H15.3V23.544C15.3 23.844 15.15 23.994 14.85 23.994H9.756C9.456 23.994 9.306 23.844 9.306 23.544V4.788H5.994V23.544C5.994 23.844 5.844 23.994 5.544 23.994H0.45Z" fill="currentColor"/>
</svg> 