<?xml version="1.0" encoding="UTF-8"?>
<svg width="24" height="24" viewBox="0 0 24 24" fill="none" xmlns="http://www.w3.org/2000/svg">
  <path d="M18.3042 12.8089L17.8643 12.4009L18.3042 12.8089ZM11.2332 5.73783L11.6412 6.17775L11.2332 5.73783ZM21.6616 4.27232L22.2565 4.35013L21.6616 4.27232ZM19.7698 2.38046L19.8476 2.9754L19.8476 2.9754L19.7698 2.38046ZM6.49508 12.6506L7.03382 12.9147L6.49508 12.6506ZM11.3915 17.547L11.1274 17.0083L11.1274 17.0083L11.3915 17.547ZM8.12194 10.2633C7.88763 10.029 7.50773 10.029 7.27342 10.2633C7.0391 10.4976 7.0391 10.8775 7.27342 11.1118L8.12194 10.2633ZM12.9303 16.7687C13.1646 17.003 13.5445 17.003 13.7788 16.7687C14.0131 16.5343 14.0131 16.1544 13.7788 15.9201L12.9303 16.7687ZM6.35418 18.5364C6.58849 18.3021 6.58849 17.9222 6.35418 17.6879C6.11986 17.4536 5.73996 17.4536 5.50565 17.6879L6.35418 18.5364ZM2.67722 20.5163C2.44291 20.7506 2.44291 21.1305 2.67722 21.3649C2.91154 21.5992 3.29144 21.5992 3.52575 21.3649L2.67722 20.5163ZM4.23286 16.4151C4.46717 16.1808 4.46717 15.8009 4.23286 15.5666C3.99854 15.3323 3.61864 15.3323 3.38433 15.5666L4.23286 16.4151ZM1.97011 16.9808C1.7358 17.2151 1.7358 17.595 1.97011 17.8293C2.20443 18.0636 2.58433 18.0636 2.81864 17.8293L1.97011 16.9808ZM8.4755 20.6577C8.70981 20.4234 8.70981 20.0435 8.4755 19.8092C8.24118 19.5749 7.86128 19.5749 7.62697 19.8092L8.4755 20.6577ZM6.21276 21.2234C5.97844 21.4577 5.97844 21.8376 6.21276 22.072C6.44707 22.3063 6.82697 22.3063 7.06128 22.072L6.21276 21.2234ZM10.5968 21.082L11.1908 20.9972L11.1908 20.9972L10.5968 21.082ZM15.7587 17.6172L16.3527 17.5323L16.3527 17.5323L15.7587 17.6172ZM2.96004 13.4453L3.0449 12.8513L3.0449 12.8513L2.96004 13.4453ZM6.42487 8.2834L6.34001 8.87737L6.34001 8.87737L6.42487 8.2834ZM9.64489 16.736L7.30603 14.3972L6.45751 15.2457L8.79636 17.5846L9.64489 16.736ZM17.8643 12.4009C15.9504 14.4645 12.8536 16.162 11.1274 17.0083L11.6556 18.0857C13.3943 17.2334 16.6678 15.4556 18.7442 13.2169L17.8643 12.4009ZM7.03382 12.9147C7.88011 11.1885 9.57756 8.09169 11.6412 6.17775L10.8252 5.29791C8.58644 7.37426 6.80871 10.6478 5.95633 12.3865L7.03382 12.9147ZM21.0667 4.19451C20.7624 6.52142 19.951 10.151 17.8643 12.4009L18.7442 13.2169C21.1054 10.6711 21.9485 6.70557 22.2565 4.35013L21.0667 4.19451ZM11.6412 6.17775C13.8911 4.09103 17.5207 3.27973 19.8476 2.9754L19.6919 1.78553C17.3365 2.09359 13.371 2.93672 10.8252 5.29791L11.6412 6.17775ZM22.2565 4.35013C22.4548 2.83395 21.2081 1.58723 19.6919 1.78553L19.8476 2.9754C20.5822 2.87931 21.1628 3.45986 21.0667 4.19451L22.2565 4.35013ZM7.30603 14.3972C6.90039 13.9915 6.79551 13.4008 7.03382 12.9147L5.95633 12.3865C5.47813 13.3619 5.71218 14.5004 6.45751 15.2457L7.30603 14.3972ZM8.79636 17.5846C9.54169 18.3299 10.6802 18.5639 11.6556 18.0857L11.1274 17.0083C10.6413 17.2466 10.0505 17.1417 9.64489 16.736L8.79636 17.5846ZM7.27342 11.1118L12.9303 16.7687L13.7788 15.9201L8.12194 10.2633L7.27342 11.1118ZM5.50565 17.6879L2.67722 20.5163L3.52575 21.3649L6.35418 18.5364L5.50565 17.6879ZM3.38433 15.5666L1.97011 16.9808L2.81864 17.8293L4.23286 16.4151L3.38433 15.5666ZM7.62697 19.8092L6.21276 21.2234L7.06128 22.072L8.4755 20.6577L7.62697 19.8092ZM13.2838 7.0813C12.2685 8.09666 12.2685 9.74289 13.2838 10.7582L14.1324 9.90972C13.5856 9.36299 13.5856 8.47656 14.1324 7.92982L13.2838 7.0813ZM13.2838 10.7582C14.2992 11.7736 15.9454 11.7736 16.9608 10.7583L16.1122 9.90972C15.5655 10.4565 14.6791 10.4565 14.1324 9.90972L13.2838 10.7582ZM16.9608 10.7583C17.9761 9.74289 17.9761 8.09666 16.9608 7.08129L16.1122 7.92982C16.659 8.47656 16.659 9.36299 16.1122 9.90972L16.9608 10.7583ZM16.9608 7.08129C15.9454 6.06593 14.2992 6.06593 13.2838 7.0813L14.1324 7.92982C14.6791 7.38309 15.5655 7.38309 16.1122 7.92982L16.9608 7.08129ZM15.0516 18.0414L11.8696 21.2234L12.7181 22.072L15.9001 18.89L15.0516 18.0414ZM11.1908 20.9972L10.7665 18.0273L9.57858 18.197L10.0028 21.1669L11.1908 20.9972ZM14.8819 15.7221L15.1647 17.702L16.3527 17.5323L16.0698 15.5524L14.8819 15.7221ZM11.8696 21.2234C11.6365 21.4565 11.2374 21.3235 11.1908 20.9972L10.0028 21.1669C10.1893 22.4721 11.7858 23.0043 12.7181 22.072L11.8696 21.2234ZM15.9001 18.89C16.2562 18.5339 16.4239 18.0309 16.3527 17.5323L15.1647 17.702C15.1825 17.8267 15.1406 17.9524 15.0516 18.0414L15.9001 18.89ZM5.15207 8.14198L1.97009 11.324L2.81862 12.1725L6.0006 8.9905L5.15207 8.14198ZM2.87519 14.0392L5.84504 14.4635L6.01474 13.2756L3.0449 12.8513L2.87519 14.0392ZM8.48962 7.97227L6.50972 7.68943L6.34001 8.87737L8.31991 9.16021L8.48962 7.97227ZM1.97009 11.324C1.03779 12.2563 1.56997 13.8528 2.87519 14.0392L3.0449 12.8513C2.71859 12.8047 2.58555 12.4056 2.81862 12.1725L1.97009 11.324ZM6.0006 8.9905C6.08963 8.90148 6.21538 8.85956 6.34001 8.87737L6.50972 7.68943C6.01117 7.61821 5.50818 7.78587 5.15207 8.14198L6.0006 8.9905Z" fill="white"/>
</svg> 